<svg xmlns="http://www.w3.org/2000/svg" viewBox="0 0 1200 800" width="1200" height="800" role="img" aria-label="Ai">
<defs><linearGradient id="a" x1="0" y1="0" x2="1" y2="1"><stop offset="0" stop-color="#2b2350"/><stop offset="1" stop-color="#07090c"/></linearGradient>
<pattern id="g" width="40" height="40" patternUnits="userSpaceOnUse"><path d="M40 0H0v40" fill="none" stroke="#8fb7ff" stroke-opacity=".16"/></pattern></defs>
<rect width="1200" height="800" fill="url(#a)"/><rect width="1200" height="800" fill="url(#g)"/>
<g opacity=".9"><circle cx="980" cy="150" r="150" fill="#8fb7ff" opacity=".14"/><path d="M120 640h960" stroke="#8fb7ff" stroke-width="3" opacity=".5"/>
<g fill="#8fb7ff" opacity=".85"><rect x="120" y="580" width="44" height="60" rx="6"/><rect x="180" y="527" width="44" height="113" rx="6"/><rect x="240" y="474" width="44" height="166" rx="6"/><rect x="300" y="421" width="44" height="219" rx="6"/><rect x="360" y="368" width="44" height="272" rx="6"/><rect x="420" y="315" width="44" height="325" rx="6"/><rect x="480" y="262" width="44" height="378" rx="6"/></g></g>
<text x="120" y="120" font-family="Georgia,serif" font-size="44" fill="#fff" opacity=".92">Article</text>
<text x="120" y="168" font-family="Menlo,monospace" font-size="20" fill="#8fb7ff" letter-spacing="3">AI</text>
<text x="120" y="712" font-family="Menlo,monospace" font-size="17" fill="#ffffff" opacity=".55">drop ai.jpg here (same name) to replace this placeholder</text>
</svg>